<?xml version="1.0" encoding="UTF-8"?> <svg xmlns="http://www.w3.org/2000/svg" width="192" height="177" viewBox="0 0 192 177" fill="none"> <path d="M116.593 148.094C116.142 147.783 115.72 147.422 115.33 147.014C112.736 144.289 109.583 137.094 117.597 119.517C119.87 114.533 122.92 110.828 126.61 108.515C123.257 104.279 118.93 100.512 113.93 97.6595C100.153 89.802 83.9469 90.2387 69.4655 98.8652C68.5142 99.4319 67.2804 99.118 66.7068 98.1638C66.1333 97.2097 66.4407 95.977 67.3906 95.4126C83.1471 86.0268 100.831 85.5768 115.907 94.1741C121.62 97.433 126.537 101.81 130.283 106.747C131.738 106.239 133.268 105.912 134.865 105.772C146.672 104.731 160.092 113.766 169.967 124.541C176.746 117.143 185.638 115.303 194.686 119.723C204.265 124.405 212.591 135.399 216.951 149.135C221.867 164.623 221.243 181.881 215.192 197.731C214.796 198.766 213.634 199.277 212.597 198.876C211.558 198.474 211.039 197.31 211.433 196.277C224.176 162.903 209.248 131.297 192.939 123.329C185.32 119.608 178.253 121.134 172.627 127.584C174.011 129.25 175.303 130.934 176.486 132.613C184.581 144.101 187.557 154.95 184.446 161.632C181.581 167.785 176.94 171.46 171.71 171.715C167.319 171.93 163.193 169.572 160.67 165.404C158.273 161.444 153.995 150.066 165.971 129.981C166.442 129.188 166.932 128.434 167.437 127.712C158.053 117.323 145.469 108.874 135.252 109.775C134.364 109.855 133.505 110.003 132.677 110.223C136.2 115.918 138.204 122.141 138.208 128.157C138.215 138.903 131.804 146.327 125.846 148.678C122.411 150.034 119.073 149.8 116.603 148.098L116.593 148.094ZM128.951 111.795C125.829 113.675 123.256 116.82 121.258 121.201C113.755 137.658 117.049 143.007 118.235 144.254C120.163 146.281 123.143 145.405 124.337 144.936C129.081 143.065 134.183 137.006 134.176 128.128C134.173 122.665 132.275 116.984 128.952 111.793L128.951 111.795ZM170.147 130.882C169.901 131.258 169.658 131.649 169.422 132.049C158.254 150.782 162.526 160.734 164.102 163.338C165.866 166.252 168.554 167.842 171.481 167.7C175.178 167.518 178.573 164.683 180.793 159.914C183.254 154.628 180.345 145.048 173.199 134.906C172.247 133.555 171.227 132.21 170.149 130.88L170.147 130.882Z" fill="#7B48A3"></path> <path fill-rule="evenodd" clip-rule="evenodd" d="M130.992 23.9348L130.761 33.6813L139.458 29.4145L133.603 37.1966L143.088 38.8959L133.848 41.7432L140.498 48.7591L131.4 45.5829L132.676 55.2363L127.197 47.2493L122.609 55.8522L122.842 46.1061L114.145 50.3729L120 42.5908L110.513 40.8896L119.754 38.0442L113.104 31.0265L122.202 34.2046L120.927 24.5511L126.405 32.5382L130.992 23.9348Z" fill="#111111"></path> <path d="M11.8212 154.977C6.22153 153.507 2.86185 147.755 4.33257 142.156C5.80329 136.556 11.5564 133.196 17.1561 134.665C22.7557 136.135 26.1154 141.887 24.6447 147.486C23.174 153.086 17.4209 156.446 11.8212 154.977ZM16.1347 138.554C12.6799 137.647 9.12875 139.722 8.22138 143.176C7.31402 146.631 9.38783 150.181 12.8426 151.088C16.2973 151.995 19.8485 149.92 20.7559 146.466C21.6633 143.011 19.5894 139.461 16.1347 138.554Z" fill="#111111"></path> <path fill-rule="evenodd" clip-rule="evenodd" d="M75.3763 137.564C76.9749 137.984 78.6218 137.022 79.041 135.426C79.4603 133.83 78.4992 132.181 76.9006 131.761C75.302 131.342 73.6574 132.304 73.2376 133.903C72.8177 135.501 73.7801 137.145 75.3763 137.564Z" fill="#111111"></path> </svg> 