<?xml version="1.0" encoding="UTF-8"?> <svg xmlns="http://www.w3.org/2000/svg" width="147" height="143" viewBox="0 0 147 143" fill="none"> <path d="M64.2113 90C63.6155 90 63.1048 89.8808 62.7169 89.7437C58.5345 88.2656 56.6383 81.3715 56.6146 75.1946C56.5789 65.831 60.7217 54.3137 72.4493 50.072C75.0858 49.1183 78.0251 48.8025 81.1762 48.9912C81.6552 44.1653 81.3207 39.6256 79.757 35.9064C77.5877 30.7428 73.0965 27.8123 66.4083 27.1924C60.4169 26.6381 55.0826 28.4918 50.5499 31.6626C51.015 46.2654 47.4779 61.7264 39.4081 67.0211C35.9562 69.286 33.8402 68.6045 32.6704 67.633C29.2264 64.7701 30.6753 56.225 33.6384 49.027C36.4134 42.2878 41.1401 35.0918 47.474 30.1626C47.3196 27.4249 47.0108 24.6692 46.5377 21.9513C44.3209 9.22211 39.0697 0.973061 32.1281 -0.679928C27.0274 -1.89583 20.7489 1.60088 14.3081 9.06118C14.3893 10.3864 14.4269 11.7552 14.4229 13.1698C14.3813 29.5388 8.27903 48.7945 -0.736877 51.3674C-3.45451 52.1422 -4.85193 50.8925 -5.44375 50.078C-9.11345 45.0316 -2.46484 27.8739 6.05029 15.0155C7.43781 12.9195 9.17764 10.4837 11.1827 8.06582C10.5533 0.655186 8.18006 -9.56673 0.0350647 -11.9369C-6.13454 -13.733 -11.8568 -11.6171 -16.0708 -9.01242C-19.028 7.46383 -28.9088 27.0553 -35.2823 34.1044C-36.6718 35.6421 -38.7521 37.5891 -40.7592 36.7805C-42.8711 35.9282 -42.784 32.7732 -42.7563 31.7361C-42.4139 19.3685 -33.1684 -0.379925 -19.9484 -10.0634C-19.5782 -10.3336 -19.2081 -10.5959 -18.836 -10.8482C-17.8186 -17.1999 -17.9888 -22.7946 -19.9523 -26.5873C-22.4839 -31.4748 -25.7201 -33.9543 -29.57 -33.9543C-29.5779 -33.9543 -29.5858 -33.9543 -29.5937 -33.9543C-35.6129 -33.9384 -48.8824 -27.7099 -70.1326 13.8394C-70.5146 14.5884 -71.4291 14.8824 -72.1753 14.499C-72.9215 14.1155 -73.2144 13.1976 -72.8324 12.4486C-56.3029 -19.8721 -41.353 -36.9702 -29.6016 -37C-26.0843 -37.0059 -21.1261 -35.4543 -17.2624 -27.994C-15.2395 -24.088 -14.8357 -18.7635 -15.5087 -12.8369C-9.97842 -15.6939 -4.38876 -16.3992 0.878265 -14.8674C7.87524 -12.831 12.4436 -5.75214 13.9103 4.98434C19.2881 -0.668003 26.008 -5.27531 32.8268 -3.64816C41.0035 -1.70113 47.09 7.438 49.5246 21.4228C49.9026 23.5904 50.1797 25.8474 50.3579 28.15C55.0845 25.2255 60.5614 23.5884 66.6855 24.1566C74.5731 24.8878 79.9114 28.4401 82.5499 34.7183C84.2976 38.8766 84.6796 43.9389 84.1531 49.3051C109.229 53.0819 144.743 84.4669 146.491 86.0225C147.116 86.5808 147.173 87.5424 146.619 88.1722C146.063 88.8 145.105 88.8576 144.478 88.3013C144.056 87.9258 107.82 55.8952 83.7751 52.2813C81.679 65.7972 74.5058 80.4794 69.1596 87.1113C67.3089 89.406 65.5414 89.996 64.2093 89.996L64.2113 90ZM79.6026 51.9535C77.3996 51.9535 75.3451 52.2614 73.4785 52.9369C63.2335 56.6422 59.6172 66.8582 59.6489 75.1827C59.6726 81.6059 61.7391 86.1695 63.7243 86.8708C64.8367 87.2662 66.0145 86.1795 66.8042 85.198C71.3646 79.5417 78.6664 65.1178 80.7843 51.9813C80.3864 51.9614 79.9926 51.9535 79.6026 51.9535ZM47.5947 34.011C42.581 38.4852 38.7807 44.515 36.4451 50.1892C33.1178 58.2694 33.2405 64.1502 34.6082 65.2866C35.3663 65.9145 37.0587 64.927 37.7514 64.4721C43.8676 60.4588 47.66 47.825 47.5967 34.011H47.5947ZM11.3925 12.699C10.4543 13.9526 9.51611 15.2877 8.57989 16.7003C-0.96846 31.1202 -4.95882 45.574 -2.99135 48.2819C-2.8904 48.421 -2.65288 48.7488 -1.56424 48.4369C5.17344 46.5137 11.349 29.6997 11.3925 13.1599C11.3925 13.0109 11.3925 12.8559 11.3925 12.699ZM-19.7049 -6.40578C-31.3751 3.0989 -39.4152 20.6619 -39.722 31.8216C-39.7537 32.96 -39.6408 33.556 -39.5518 33.8421C-38.3048 33.262 -34.7756 29.5606 -29.851 20.1811C-25.5657 12.0215 -21.7199 2.35585 -19.7049 -6.40578Z" fill="#115999"></path> <path fill-rule="evenodd" clip-rule="evenodd" d="M130.5 16L132.315 23.474L138.225 18.4829L135.253 25.5848L143 24.9825L136.375 29L143 33.0175L135.253 32.4152L138.225 39.5171L132.316 34.526L130.5 42L128.684 34.526L122.774 39.5171L125.747 32.4152L118 33.0175L124.625 29L118 24.9825L125.747 25.5848L122.774 18.4829L128.684 23.474L130.5 16Z" fill="#111111"></path> <path d="M104.441 141.724C106.86 141.152 108.359 138.727 107.789 136.308C107.22 133.888 104.798 132.391 102.379 132.964C99.9606 133.536 98.4616 135.961 99.031 138.38C99.6005 140.799 102.023 142.297 104.441 141.724Z" fill="#111111"></path> <path fill-rule="evenodd" clip-rule="evenodd" d="M19.5 88C20.8778 88 22 86.8758 22 85.5C22 84.1242 20.8758 83 19.5 83C18.1242 83 17 84.1242 17 85.5C17 86.8758 18.1242 88 19.5 88Z" fill="#111111"></path> </svg> 